<svg width="24" height="24" viewBox="0 0 24 24" fill="none" xmlns="http://www.w3.org/2000/svg">
<path d="M6.44454 2C5.4075 2.2648 3.33342 3.35045 3.33342 5.57473C3.33342 8.10294 3.01187 11.288 1.49159 12.1435C1.30794 12.2469 1.24033 12.5322 1.38965 12.6809C1.97236 13.2612 2.62906 14.1407 2.94453 15.1074C3.33342 16.2989 3.33342 23.0512 8.00009 21.8596M18.3334 2C19.2223 2.2648 21.0001 3.35045 21.0001 5.57473C21.0001 8.10379 21.2759 11.2901 22.5801 12.1444C22.746 12.253 22.8137 12.5109 22.6837 12.6606C22.18 13.2406 21.607 14.1294 21.3334 15.1074C21.0001 16.2989 21.0001 23.0512 17.0001 21.8596M12.5715 7L11.9346 12.0156M11.9346 12.0156L11.9281 12.0672M11.9346 12.0156L11.91 12.0483M11.9346 12.0156L14.0953 9.14286M11.9281 12.0672L11.9185 12.1429M11.9281 12.0672L11.91 12.0483M11.9281 12.0672L12.0001 12.1429M11.9185 12.1429L11.4287 16M11.9185 12.1429H11.8389M11.9185 12.1429H12.0001M8.00009 12.1429H11.8389M11.8389 12.1429L9.90485 14.7143M11.8389 12.1429L11.91 12.0483M12.0001 12.1429H16.0001M12.0001 12.1429L14.8572 15.1429M9.14295 9.14286L11.91 12.0483" stroke="black" stroke-linecap="round"/>
</svg>
