<svg width="24" height="25" viewBox="0 0 24 25" fill="none" xmlns="http://www.w3.org/2000/svg">
<path d="M4.96547 16.8883C6.47688 16.0797 7.35615 17.4 7.60694 18.1613C9.69821 16.8659 10.2874 11.9426 10.3207 9.64287C12.9777 11.4453 15.9777 10.0345 17.1456 9.10375C20.0732 6.7707 19.1323 4.57952 17.0907 3.31945C15.9029 2.5863 15.4366 1.77323 15.1865 1.16125C14.7069 2.03759 14.3608 3.53506 12.9586 4.47278C12.263 4.93801 10.0208 5.15767 8.85311 5.52064C2.6708 7.44235 3.6854 13.8997 4.96547 16.8883ZM4.96547 16.8883C4.61481 17.7192 4.6302 19.4537 6.7175 19.9573C6.95458 20.7506 8.01531 22.4509 10.3614 22.9058C13.2939 23.4743 15.327 23.0339 16.2773 22.1755C17.2275 21.3171 18.4011 19.1188 18.3762 17.1221M14.104 15.2235C14.2448 15.2118 14.3452 15.0255 14.3281 14.8075C14.311 14.5894 14.183 14.4222 14.0422 14.4339M14.104 15.2235C13.9632 15.2353 13.8352 15.068 13.8181 14.85C13.8011 14.6319 13.9014 14.4456 14.0422 14.4339M14.104 15.2235L14.0422 14.4339M17.7564 13.0344C17.8771 13.0244 17.9631 12.8647 17.9484 12.6778C17.9338 12.4909 17.8242 12.3476 17.7034 12.3576M17.7564 13.0344C17.6357 13.0445 17.526 12.9012 17.5114 12.7143C17.4968 12.5273 17.5827 12.3677 17.7034 12.3576M17.7564 13.0344L17.7034 12.3576M16.6099 9.47806C16.8367 9.71889 17.0029 10.0547 16.9252 10.7388M15.0701 13.8746L15.8184 13.3718M9.3191 15.6613L12.0701 15.3779M17.2326 17.1836L18.6921 16.9604C18.9344 16.703 19.3825 15.7171 18.3506 15.5321C17.9758 15.4955 17.1374 15.2944 16.7822 14.782M13.7472 20.4607C14.2117 20.537 15.3216 20.515 16.0448 19.8168M15.3115 14.9047C15.3998 16.0331 14.7229 16.9492 13.8721 17.0202C13.0213 17.0911 12.2108 16.2989 12.1225 15.1705C12.0342 14.0422 12.7111 13.126 13.5619 13.055C14.4127 12.9842 15.2232 13.7763 15.3115 14.9047ZM18.5577 12.7708C18.6011 13.3255 18.4762 13.8335 18.2487 14.2058C18.0211 14.5779 17.6995 14.8039 17.3439 14.8335C16.9883 14.8632 16.6358 14.6934 16.3533 14.3637C16.0708 14.034 15.8685 13.5533 15.8252 12.9986C15.7818 12.4438 15.9067 11.9359 16.1343 11.5636C16.3618 11.1914 16.6834 10.9655 17.039 10.9358C17.3945 10.9062 17.7472 11.0759 18.0296 11.4057C18.3121 11.7354 18.5143 12.2161 18.5577 12.7708Z" stroke="black" stroke-linecap="round"/>
</svg>
