<svg width="24" height="24" viewBox="0 0 24 24" fill="none" xmlns="http://www.w3.org/2000/svg">
<path d="M11.0518 4.70889V4.70987C11.0516 4.71035 11.0498 4.71239 11.0469 4.71573C11.0405 4.72308 11.0295 4.73044 11.0156 4.73233C10.01 4.86981 9.04189 5.21661 8.1748 5.75284C7.15503 6.38353 6.30585 7.25687 5.70312 8.29483C5.1005 9.33274 4.76235 10.504 4.71875 11.704C4.6752 12.9041 4.92739 14.0966 5.45312 15.1757C5.97885 16.2547 6.76229 17.1872 7.7334 17.8905C8.70473 18.5939 9.83492 19.0467 11.0225 19.2079C12.2099 19.3691 13.419 19.2344 14.542 18.8153C15.4967 18.459 16.3639 17.906 17.0898 17.1952C17.1001 17.1852 17.1128 17.181 17.1221 17.1806C17.1262 17.1804 17.1287 17.1815 17.1289 17.1815L19.5293 19.3075C18.4446 20.427 17.1246 21.293 15.6621 21.8388C14.044 22.4427 12.3017 22.6375 10.5908 22.4052C8.88017 22.1728 7.25321 21.5203 5.85352 20.5067C4.45372 19.493 3.32454 18.1486 2.56641 16.5927C1.80826 15.0366 1.44395 13.3167 1.50684 11.5858C1.56977 9.85524 2.05787 8.16722 2.92676 6.67081C3.79569 5.17441 5.01882 3.91561 6.48828 3.00674C7.8155 2.18595 9.30686 1.67227 10.8525 1.50186L11.0518 4.70889ZM13.9102 1.61514C15.455 1.90176 16.918 2.53322 18.1904 3.46475C19.5977 4.49498 20.7276 5.86003 21.4775 7.43741C22.2275 9.01495 22.5742 10.7554 22.4863 12.5009C22.4068 14.0792 21.9736 15.6165 21.2227 17.0009L18.4873 15.3349L18.4863 15.3339C18.4858 15.333 18.4853 15.3305 18.4844 15.3271C18.482 15.3175 18.482 15.3046 18.4883 15.2919C18.9548 14.3759 19.2244 13.369 19.2764 12.3378C19.3373 11.1276 19.0972 9.92103 18.5771 8.82706C18.057 7.73296 17.2734 6.78512 16.2969 6.07022C15.4652 5.46133 14.5153 5.03757 13.5117 4.82413C13.4981 4.82118 13.4872 4.8134 13.4814 4.80557C13.4794 4.80276 13.4788 4.8006 13.4785 4.79971V4.79874L13.9102 1.61514Z" stroke="black"/>
</svg>
