<svg width="24" height="24" viewBox="0 0 24 24" fill="none" xmlns="http://www.w3.org/2000/svg">
<path d="M4.05108 9.46689C3.71989 12.8502 4.84596 19.6167 11.9998 19.6167M11.9998 19.6167C19.1537 19.6167 20.28 12.8502 19.949 9.46689M11.9998 19.6167V22.7995M11.9998 22.7995C10.3367 22.8328 8.62784 22.9236 7.52901 23C5.78682 23.1211 18.5 23.4998 16.4714 23C15.6351 22.7966 13.8457 22.7626 11.9998 22.7995ZM12.5 3.49985C12.8333 3.73347 13.6 4.48063 14 5.60028M7.52867 12.756V5.60028C7.5 2.49911 10.9841 -0.858384 14.4838 2.217C16.4714 3.96352 16.4714 13.7259 14.4838 15.75C13.0369 17.2235 8.57971 17.6749 7.54899 12.9461C7.53542 12.8839 7.52867 12.8197 7.52867 12.756Z" stroke="black" stroke-linecap="round"/>
</svg>
