<svg width="24" height="24" viewBox="0 0 24 24" fill="none" xmlns="http://www.w3.org/2000/svg">
<path d="M20.5 6.00002H16.5M20.5 10H16.5M20.5 14H16.5M1.46792 2.21949C1.26243 8.44789 0.903945 19.5439 1.02442 22.9999M2.85933 1.49229C4.66238 1.13895 8.3263 0.991677 12 1.00038C13.3635 1.00361 12.7284 0.976728 14 1.02037M1.99996 23C2.81962 22.1769 7.58885 21.712 12 21.4667C13.418 21.3878 12.799 21.2801 14 21.242M23 1.8799C22.6757 5.83022 22.4666 11.1465 22.4259 15C22.4007 17.3913 22.4404 19.2193 22.5577 19.8083C22.9307 21.6809 22.2046 21.2268 19.3795 21.2268C18.7208 21.2268 15.5011 21.1945 14 21.242M14 1.02037C16.3525 1.10112 20.3856 1.29826 21.5 1.49236M14 1.02037C13.8333 7.35879 13.6 20.2769 14 21.242" stroke="black" stroke-linecap="round"/>
</svg>
