<svg width="24" height="24" viewBox="0 0 24 24" fill="none" xmlns="http://www.w3.org/2000/svg">
<path d="M22.5075 21.1408C23.2346 17.4304 23.0891 5.83952 22.5074 2.50014M21.7803 22.5322C15.5519 22.7377 4.45592 23.0962 0.999832 22.9757M0.999756 22.0001C2.41826 20.5876 2.77301 7.44559 2.77301 4.62056C2.77301 1.79553 2.31888 1.06945 4.19151 1.4424C5.72965 1.74873 15.7183 1.52567 22.1199 1.00014M14.9999 16.0001C16.9998 16.0001 18.5862 17.9573 16.4999 19.0001C15.4997 19.5001 4.99976 20.5001 5.00006 18.0001C4.99976 17.5001 4.99969 16.0001 6.99969 16.0001L14.9999 16.0001ZM10.6075 5.00014C11.729 5.00014 12.6186 6.61983 11.4487 7.4829C10.8877 7.89669 4.99959 8.72428 4.99976 6.65531C4.99959 6.24152 4.99955 5.00014 6.12111 5.00014L10.6075 5.00014ZM17.0163 10.0001C19.4195 10.0001 21.3258 12.1597 18.8188 13.3105C17.6169 13.8622 4.9994 14.9657 4.99977 12.207C4.9994 11.6553 4.99932 10.0001 7.40266 10.0001L17.0163 10.0001Z" stroke="black" stroke-linecap="round"/>
</svg>
