<svg width="24" height="24" viewBox="0 0 24 24" fill="none" xmlns="http://www.w3.org/2000/svg">
<path d="M3.5 5.99999H7.5M3.5 9.99999H7.5M3.5 14H7.5M22.532 2.21945C22.7375 8.44786 23.096 19.5438 22.9755 22.9999M21.1406 1.49226C19.3376 1.13892 15.6737 0.991647 12 1.00035C10.6365 1.00358 11.2716 0.976697 10 1.02034M22 23C21.1803 22.1769 16.4111 21.7119 12 21.4666C10.582 21.3878 11.2009 21.28 10 21.242M1 1.87987C1.3243 5.83019 1.53341 11.1464 1.57403 15C1.59923 17.3912 1.55955 19.2192 1.44226 19.8082C1.06931 21.6809 1.79539 21.2267 4.62042 21.2267C5.27916 21.2267 8.49886 21.1944 10 21.242M10 1.02034C7.64747 1.10109 3.61433 1.29823 2.5 1.49233M10 1.02034C10.1667 7.35876 10.4 20.2769 10 21.242" stroke="black" stroke-linecap="round"/>
</svg>
