<svg width="24" height="24" viewBox="0 0 24 24" fill="none" xmlns="http://www.w3.org/2000/svg">
<path d="M13 5H3.99996M13 9.33333H3.99996M13 13.6667H3.99996M13 18H3.99996M1.46792 2.21947C1.26243 8.44787 0.903945 19.5438 1.02442 22.9999M2.85933 1.49227C4.66238 1.13894 8.3263 0.991661 12 1.00036C13.3635 1.00359 14.7284 1.02831 16 1.07196M1.99996 23C2.81962 22.1769 7.58885 21.7119 12 21.4667C13.418 21.3878 14.799 21.3317 16 21.2936M23 1.87988C22.6757 5.83021 22.4666 11.1464 22.4259 15C22.4007 17.3912 22.4404 19.2193 22.5577 19.8082C22.9307 21.6809 22.2046 21.2267 19.3795 21.2267C18.7208 21.2267 17.5011 21.246 16 21.2936M16 1.07196C18.3525 1.15271 20.3856 1.29824 21.5 1.49235M16 1.07196C15.8333 7.41037 15.6 20.3285 16 21.2936" stroke="black" stroke-linecap="round"/>
</svg>
